<?xml version="1.0" encoding="UTF-8" standalone="no"?><svg id="visual" viewBox="0 0 1800 800" width="1800" height="800" xmlns="http://www.w3.org/2000/svg" xmlns:xlink="http://www.w3.org/1999/xlink" version="1.1"><rect x="0" y="0" width="1800" height="800" fill="#ffffff"></rect><path d="M0 351L450 348L900 363L1350 256L1800 354L1800 801L1350 801L900 801L450 801L0 801Z" fill="#609199"></path><path d="M0 313L450 419L900 360L1350 387L1800 422L1800 801L1350 801L900 801L450 801L0 801Z" fill="#74aab2"></path><path d="M0 494L450 486L900 461L1350 568L1800 549L1800 801L1350 801L900 801L450 801L0 801Z" fill="#88c3cc"></path><path d="M0 558L450 613L900 607L1350 660L1800 644L1800 801L1350 801L900 801L450 801L0 801Z" fill="#9bcdd3"></path><path d="M0 691L450 623L900 637L1350 701L1800 642L1800 801L1350 801L900 801L450 801L0 801Z" fill="#aed6da"></path></svg>